<?xml version="1.0" encoding="utf-8"?>
<!-- Svg Vector Icons : http://www.onlinewebfonts.com/icon -->
<!DOCTYPE svg PUBLIC "-//W3C//DTD SVG 1.1//EN" "http://www.w3.org/Graphics/SVG/1.1/DTD/svg11.dtd">
<svg version="1.1" xmlns="http://www.w3.org/2000/svg" xmlns:xlink="http://www.w3.org/1999/xlink" x="0px" y="0px" viewBox="0 0 1000 1000" enable-background="new 0 0 1000 1000" xml:space="preserve">
<metadata> Svg Vector Icons : http://www.onlinewebfonts.com/icon </metadata>
<g><g transform="translate(0.000000,512.000000) scale(0.100000,-0.100000)"><path d="M4665.6,4996.2c-716.8-134.2-1289.8-619-1517.9-1284.1c-76.7-222.3-101.6-452.3-88.2-801.1c5.7-187.8,1.9-329.6-9.6-358.4c-9.6-26.8-70.9-116.9-134.2-201.2c-185.9-247.2-247.2-521.3-157.2-699.5c67.1-132.2,249.2-228.1,435.1-230c145.6,0,187.8,15.3,364.1,136.1c262.6,178.2,310.5,176.3,532.8-40.2c84.3-84.3,185.9-164.8,224.2-182.1c143.7-59.4,277.9-30.7,465.7,97.7c274.1,187.8,314.3,184,555.8-49.8c95.8-92,193.6-172.5,216.6-182.1c90.1-26.8,178.3,7.7,270.2,109.2c243.4,266.4,214.6,245.3,343.1,245.3c101.6,0,138-11.5,320.1-105.4c228.1-116.9,299-128.4,454.2-70.9c281.7,101.6,402.5,325.8,312.4,580.7c-17.3,44.1-82.4,153.3-145.6,241.5c-176.3,243.4-172.5,230-159.1,691.9c9.6,274.1,5.8,438.9-9.6,530.9c-126.5,745.5-684.2,1341.6-1435.5,1537.1C5265.5,5023,4893.7,5038.4,4665.6,4996.2z"/><path d="M3659.4,1259c-69-46-136.1-84.3-151.4-86.3c-17.2,0-21.1-15.3-11.5-51.7c7.7-30.7,318.1-1333.9,691.9-2897.8c452.3-1893.5,693.8-2871,722.5-2922.7c59.4-107.3,120.7-107.3,180.2,0c28.8,49.8,185.9,674.6,446.5,1772.8c224.2,931.4,529,2215.5,682.3,2851.8c151.4,638.2,272.1,1161.4,268.3,1165.3c-3.8,3.8-69,46-145.7,90.1l-139.9,84.3l-155.3-159.1c-136.1-139.9-168.6-162.9-268.3-191.7c-220.4-65.2-400.6-5.7-599.9,195.5c-65.2,67.1-126.5,120.7-138,120.7c-11.5,0-69-34.5-130.3-76.7c-230-162.9-521.3-195.5-743.6-86.3c-59.4,28.8-162.9,103.5-230,164.8c-65.2,63.2-126.5,113.1-136.1,111.2C3791.7,1343.3,3728.4,1305,3659.4,1259z"/></g></g>
</svg>