<?xml version="1.0"?>
<svg xmlns="http://www.w3.org/2000/svg" viewBox="0 0 26 26" enable-background="new 0 0 26 26">
    <path d="M13,0C5.8,0,0,5.8,0,13s5.8,13,13,13s13-5.8,13-13S20.2,0,13,0z M11.8,13.1c0,1,0.4,2.8,0.4,5.2c0,4.3-0.5,4.7-1.2,4.7 c-0.7,0-1.2-0.4-1.2-4.7c0-2.4,0.4-4.2,0.4-5.2c0-1-2.2-1-2.2-3.6c0-2.3,0.2-6.3,0.2-6.3s0.4-0.1,1.2-0.1l0,5c0,0.3,0.2,0.5,0.5,0.5 c0.3,0,0.5-0.2,0.5-0.5V3c0.2,0,0.4,0,0.7,0c0.2,0,0.4,0,0.6,0v5.1c0,0.3,0.2,0.5,0.5,0.5c0.3,0,0.5-0.2,0.5-0.5l0-5.1 c0.8,0.1,1.2,0.1,1.2,0.1S14,8,14,9.5C14,12.1,11.8,12.1,11.8,13.1z M17.6,18.6c0,4.3-0.6,4.4-1.3,4.4c-0.7,0-1.3-0.1-1.3-4.4 c0-2.4,1-6.4,1-10.6V3c2.7,0,3.3,4.4,3.3,6.4c0,2.6-2.1,3.9-2.1,5.6C17.2,16,17.6,16.2,17.6,18.6z"/>
</svg>
